%TF.GenerationSoftware,KiCad,Pcbnew,10.0.0*%
%TF.CreationDate,2026-04-06T10:19:14+05:30*%
%TF.ProjectId,Load_Cell_HX711,4c6f6164-5f43-4656-9c6c-5f4858373131,rev?*%
%TF.SameCoordinates,Original*%
%TF.FileFunction,Soldermask,Top*%
%TF.FilePolarity,Negative*%
%FSLAX46Y46*%
G04 Gerber Fmt 4.6, Leading zero omitted, Abs format (unit mm)*
G04 Created by KiCad (PCBNEW 10.0.0) date 2026-04-06 10:19:14*
%MOMM*%
%LPD*%
G01*
G04 APERTURE LIST*
G04 Aperture macros list*
%AMRoundRect*
0 Rectangle with rounded corners*
0 $1 Rounding radius*
0 $2 $3 $4 $5 $6 $7 $8 $9 X,Y pos of 4 corners*
0 Add a 4 corners polygon primitive as box body*
4,1,4,$2,$3,$4,$5,$6,$7,$8,$9,$2,$3,0*
0 Add four circle primitives for the rounded corners*
1,1,$1+$1,$2,$3*
1,1,$1+$1,$4,$5*
1,1,$1+$1,$6,$7*
1,1,$1+$1,$8,$9*
0 Add four rect primitives between the rounded corners*
20,1,$1+$1,$2,$3,$4,$5,0*
20,1,$1+$1,$4,$5,$6,$7,0*
20,1,$1+$1,$6,$7,$8,$9,0*
20,1,$1+$1,$8,$9,$2,$3,0*%
G04 Aperture macros list end*
%ADD10RoundRect,0.140000X0.170000X-0.140000X0.170000X0.140000X-0.170000X0.140000X-0.170000X-0.140000X0*%
%ADD11RoundRect,0.250000X0.650000X-0.325000X0.650000X0.325000X-0.650000X0.325000X-0.650000X-0.325000X0*%
%ADD12RoundRect,0.250000X-0.850000X-0.350000X0.850000X-0.350000X0.850000X0.350000X-0.850000X0.350000X0*%
%ADD13RoundRect,0.249997X-2.950003X-2.650003X2.950003X-2.650003X2.950003X2.650003X-2.950003X2.650003X0*%
%ADD14RoundRect,0.147500X-0.147500X-0.172500X0.147500X-0.172500X0.147500X0.172500X-0.147500X0.172500X0*%
%ADD15RoundRect,0.140000X-0.170000X0.140000X-0.170000X-0.140000X0.170000X-0.140000X0.170000X0.140000X0*%
%ADD16C,1.100000*%
%ADD17R,2.030000X1.730000*%
%ADD18O,2.030000X1.730000*%
%ADD19RoundRect,0.150000X0.150000X-0.825000X0.150000X0.825000X-0.150000X0.825000X-0.150000X-0.825000X0*%
%ADD20RoundRect,0.175000X0.325000X-0.175000X0.325000X0.175000X-0.325000X0.175000X-0.325000X-0.175000X0*%
%ADD21RoundRect,0.150000X0.150000X-0.200000X0.150000X0.200000X-0.150000X0.200000X-0.150000X-0.200000X0*%
%ADD22RoundRect,0.135000X-0.135000X-0.185000X0.135000X-0.185000X0.135000X0.185000X-0.135000X0.185000X0*%
%ADD23RoundRect,0.135000X-0.185000X0.135000X-0.185000X-0.135000X0.185000X-0.135000X0.185000X0.135000X0*%
G04 APERTURE END LIST*
D10*
%TO.C,C5*%
X143500000Y-71980000D03*
X143500000Y-71020000D03*
%TD*%
D11*
%TO.C,C2*%
X165000000Y-66975000D03*
X165000000Y-64025000D03*
%TD*%
D12*
%TO.C,U2*%
X148960000Y-72720000D03*
X148960000Y-75000000D03*
D13*
X155260000Y-75000000D03*
D12*
X148960000Y-77280000D03*
%TD*%
D14*
%TO.C,FB1*%
X137515000Y-64000000D03*
X138485000Y-64000000D03*
%TD*%
D15*
%TO.C,C3*%
X135000000Y-68020000D03*
X135000000Y-68980000D03*
%TD*%
%TO.C,C4*%
X139500000Y-68020000D03*
X139500000Y-68980000D03*
%TD*%
D16*
%TO.C,J2*%
X164340000Y-75420000D03*
D17*
X166500000Y-80500000D03*
D18*
X166500000Y-77960000D03*
X166500000Y-75420000D03*
X166500000Y-72880000D03*
%TD*%
D11*
%TO.C,C1*%
X155500000Y-66975000D03*
X155500000Y-64025000D03*
%TD*%
D19*
%TO.C,U1*%
X134055000Y-80475000D03*
X135325000Y-80475000D03*
X136595000Y-80475000D03*
X137865000Y-80475000D03*
X139135000Y-80475000D03*
X140405000Y-80475000D03*
X141675000Y-80475000D03*
X142945000Y-80475000D03*
X142945000Y-75525000D03*
X141675000Y-75525000D03*
X140405000Y-75525000D03*
X139135000Y-75525000D03*
X137865000Y-75525000D03*
X136595000Y-75525000D03*
X135325000Y-75525000D03*
X134055000Y-75525000D03*
%TD*%
D20*
%TO.C,D2*%
X128750000Y-79000000D03*
D21*
X130450000Y-79000000D03*
X130450000Y-77000000D03*
X128550000Y-77000000D03*
%TD*%
D10*
%TO.C,C6*%
X147500000Y-82480000D03*
X147500000Y-81520000D03*
%TD*%
D22*
%TO.C,R1*%
X143490000Y-85500000D03*
X144510000Y-85500000D03*
%TD*%
D16*
%TO.C,J1*%
X123660000Y-80080000D03*
D17*
X121500000Y-75000000D03*
D18*
X121500000Y-77540000D03*
X121500000Y-80080000D03*
X121500000Y-82620000D03*
%TD*%
D23*
%TO.C,R2*%
X131500000Y-69490000D03*
X131500000Y-70510000D03*
%TD*%
M02*
