%TF.GenerationSoftware,KiCad,Pcbnew,10.0.0*%
%TF.CreationDate,2026-04-06T10:19:14+05:30*%
%TF.ProjectId,Load_Cell_HX711,4c6f6164-5f43-4656-9c6c-5f4858373131,rev?*%
%TF.SameCoordinates,Original*%
%TF.FileFunction,Copper,L2,Bot*%
%TF.FilePolarity,Positive*%
%FSLAX46Y46*%
G04 Gerber Fmt 4.6, Leading zero omitted, Abs format (unit mm)*
G04 Created by KiCad (PCBNEW 10.0.0) date 2026-04-06 10:19:14*
%MOMM*%
%LPD*%
G01*
G04 APERTURE LIST*
%TA.AperFunction,ComponentPad*%
%ADD10R,2.030000X1.730000*%
%TD*%
%TA.AperFunction,ComponentPad*%
%ADD11O,2.030000X1.730000*%
%TD*%
%TA.AperFunction,ViaPad*%
%ADD12C,0.600000*%
%TD*%
%TA.AperFunction,Conductor*%
%ADD13C,0.200000*%
%TD*%
G04 APERTURE END LIST*
D10*
%TO.P,J2,1,Pin_1_1*%
%TO.N,/DOUT*%
X166500000Y-80500000D03*
D11*
%TO.P,J2,2,Pin_2_2*%
%TO.N,/SCK*%
X166500000Y-77960000D03*
%TO.P,J2,3,Pin_3_3*%
%TO.N,+3.3V*%
X166500000Y-75420000D03*
%TO.P,J2,4,Pin_4_4*%
%TO.N,GND*%
X166500000Y-72880000D03*
%TD*%
D10*
%TO.P,J1,1,Pin_1_1*%
%TO.N,AVDD*%
X121500000Y-75000000D03*
D11*
%TO.P,J1,2,Pin_2_2*%
%TO.N,GND*%
X121500000Y-77540000D03*
%TO.P,J1,3,Pin_3_3*%
%TO.N,/SIG_P*%
X121500000Y-80080000D03*
%TO.P,J1,4,Pin_4_4*%
%TO.N,/SIG_N*%
X121500000Y-82620000D03*
%TD*%
D12*
%TO.N,+3.3V*%
X142276600Y-86122800D03*
X145744700Y-74800600D03*
%TO.N,VCC*%
X136922600Y-68284900D03*
X134252200Y-77619100D03*
X149746600Y-66975000D03*
X133133000Y-80401200D03*
X150941400Y-78044000D03*
%TO.N,AVDD*%
X125159800Y-81629000D03*
%TO.N,/DOUT*%
X138914300Y-77017600D03*
X141108300Y-84877800D03*
%TO.N,/SIG_N*%
X129461900Y-77267700D03*
%TD*%
%TO.N,+3.3V*%
D13*
X145744700Y-74800600D02*
X145944100Y-75000000D01*
X142867200Y-86122800D02*
X142276600Y-86122800D01*
X142276600Y-86122800D02*
X142867200Y-86122800D01*
X145744700Y-82654700D02*
X142276600Y-86122800D01*
X145744700Y-74800600D02*
X145744700Y-82654700D01*
X145944100Y-75000000D02*
X145744700Y-74800600D01*
%TO.N,VCC*%
X136922600Y-68284900D02*
X136657700Y-68020000D01*
X134252200Y-77619100D02*
X134252200Y-70955300D01*
X133133000Y-80401200D02*
X133133000Y-78738300D01*
X149746600Y-66975000D02*
X149746600Y-76849200D01*
X134252200Y-70955300D02*
X136922600Y-68284900D01*
X149746600Y-76849200D02*
X150941400Y-78044000D01*
X133133000Y-78738300D02*
X134252200Y-77619100D01*
X136657700Y-68020000D02*
X136922600Y-68284900D01*
%TO.N,AVDD*%
X121937500Y-76166700D02*
X121500000Y-76166700D01*
X125159800Y-81629000D02*
X125159800Y-79389000D01*
X125159800Y-79389000D02*
X121937500Y-76166700D01*
X121500000Y-75000000D02*
X121500000Y-76166700D01*
%TO.N,/DOUT*%
X138914300Y-82683800D02*
X138914300Y-77017600D01*
X141108300Y-84877800D02*
X138914300Y-82683800D01*
%TO.N,/SIG_N*%
X129461900Y-77267700D02*
X129461900Y-78300600D01*
X129461900Y-78300600D02*
X125142500Y-82620000D01*
X125142500Y-82620000D02*
X121500000Y-82620000D01*
X129461900Y-77267700D02*
X129629200Y-77100400D01*
X129629200Y-77100400D02*
X129461900Y-77267700D01*
%TD*%
M02*
