%TF.GenerationSoftware,KiCad,Pcbnew,10.0.0*%
%TF.CreationDate,2026-04-06T10:19:14+05:30*%
%TF.ProjectId,Load_Cell_HX711,4c6f6164-5f43-4656-9c6c-5f4858373131,rev?*%
%TF.SameCoordinates,Original*%
%TF.FileFunction,Legend,Top*%
%TF.FilePolarity,Positive*%
%FSLAX46Y46*%
G04 Gerber Fmt 4.6, Leading zero omitted, Abs format (unit mm)*
G04 Created by KiCad (PCBNEW 10.0.0) date 2026-04-06 10:19:14*
%MOMM*%
%LPD*%
G01*
G04 APERTURE LIST*
%ADD10C,0.150000*%
%ADD11C,0.120000*%
G04 APERTURE END LIST*
D10*
X142699580Y-71666666D02*
X142747200Y-71714285D01*
X142747200Y-71714285D02*
X142794819Y-71857142D01*
X142794819Y-71857142D02*
X142794819Y-71952380D01*
X142794819Y-71952380D02*
X142747200Y-72095237D01*
X142747200Y-72095237D02*
X142651961Y-72190475D01*
X142651961Y-72190475D02*
X142556723Y-72238094D01*
X142556723Y-72238094D02*
X142366247Y-72285713D01*
X142366247Y-72285713D02*
X142223390Y-72285713D01*
X142223390Y-72285713D02*
X142032914Y-72238094D01*
X142032914Y-72238094D02*
X141937676Y-72190475D01*
X141937676Y-72190475D02*
X141842438Y-72095237D01*
X141842438Y-72095237D02*
X141794819Y-71952380D01*
X141794819Y-71952380D02*
X141794819Y-71857142D01*
X141794819Y-71857142D02*
X141842438Y-71714285D01*
X141842438Y-71714285D02*
X141890057Y-71666666D01*
X141794819Y-70761904D02*
X141794819Y-71238094D01*
X141794819Y-71238094D02*
X142271009Y-71285713D01*
X142271009Y-71285713D02*
X142223390Y-71238094D01*
X142223390Y-71238094D02*
X142175771Y-71142856D01*
X142175771Y-71142856D02*
X142175771Y-70904761D01*
X142175771Y-70904761D02*
X142223390Y-70809523D01*
X142223390Y-70809523D02*
X142271009Y-70761904D01*
X142271009Y-70761904D02*
X142366247Y-70714285D01*
X142366247Y-70714285D02*
X142604342Y-70714285D01*
X142604342Y-70714285D02*
X142699580Y-70761904D01*
X142699580Y-70761904D02*
X142747200Y-70809523D01*
X142747200Y-70809523D02*
X142794819Y-70904761D01*
X142794819Y-70904761D02*
X142794819Y-71142856D01*
X142794819Y-71142856D02*
X142747200Y-71238094D01*
X142747200Y-71238094D02*
X142699580Y-71285713D01*
X163509580Y-65666666D02*
X163557200Y-65714285D01*
X163557200Y-65714285D02*
X163604819Y-65857142D01*
X163604819Y-65857142D02*
X163604819Y-65952380D01*
X163604819Y-65952380D02*
X163557200Y-66095237D01*
X163557200Y-66095237D02*
X163461961Y-66190475D01*
X163461961Y-66190475D02*
X163366723Y-66238094D01*
X163366723Y-66238094D02*
X163176247Y-66285713D01*
X163176247Y-66285713D02*
X163033390Y-66285713D01*
X163033390Y-66285713D02*
X162842914Y-66238094D01*
X162842914Y-66238094D02*
X162747676Y-66190475D01*
X162747676Y-66190475D02*
X162652438Y-66095237D01*
X162652438Y-66095237D02*
X162604819Y-65952380D01*
X162604819Y-65952380D02*
X162604819Y-65857142D01*
X162604819Y-65857142D02*
X162652438Y-65714285D01*
X162652438Y-65714285D02*
X162700057Y-65666666D01*
X162700057Y-65285713D02*
X162652438Y-65238094D01*
X162652438Y-65238094D02*
X162604819Y-65142856D01*
X162604819Y-65142856D02*
X162604819Y-64904761D01*
X162604819Y-64904761D02*
X162652438Y-64809523D01*
X162652438Y-64809523D02*
X162700057Y-64761904D01*
X162700057Y-64761904D02*
X162795295Y-64714285D01*
X162795295Y-64714285D02*
X162890533Y-64714285D01*
X162890533Y-64714285D02*
X163033390Y-64761904D01*
X163033390Y-64761904D02*
X163604819Y-65333332D01*
X163604819Y-65333332D02*
X163604819Y-64714285D01*
X153238095Y-69954819D02*
X153238095Y-70764342D01*
X153238095Y-70764342D02*
X153285714Y-70859580D01*
X153285714Y-70859580D02*
X153333333Y-70907200D01*
X153333333Y-70907200D02*
X153428571Y-70954819D01*
X153428571Y-70954819D02*
X153619047Y-70954819D01*
X153619047Y-70954819D02*
X153714285Y-70907200D01*
X153714285Y-70907200D02*
X153761904Y-70859580D01*
X153761904Y-70859580D02*
X153809523Y-70764342D01*
X153809523Y-70764342D02*
X153809523Y-69954819D01*
X154238095Y-70050057D02*
X154285714Y-70002438D01*
X154285714Y-70002438D02*
X154380952Y-69954819D01*
X154380952Y-69954819D02*
X154619047Y-69954819D01*
X154619047Y-69954819D02*
X154714285Y-70002438D01*
X154714285Y-70002438D02*
X154761904Y-70050057D01*
X154761904Y-70050057D02*
X154809523Y-70145295D01*
X154809523Y-70145295D02*
X154809523Y-70240533D01*
X154809523Y-70240533D02*
X154761904Y-70383390D01*
X154761904Y-70383390D02*
X154190476Y-70954819D01*
X154190476Y-70954819D02*
X154809523Y-70954819D01*
X137166666Y-62761009D02*
X136833333Y-62761009D01*
X136833333Y-63284819D02*
X136833333Y-62284819D01*
X136833333Y-62284819D02*
X137309523Y-62284819D01*
X138023809Y-62761009D02*
X138166666Y-62808628D01*
X138166666Y-62808628D02*
X138214285Y-62856247D01*
X138214285Y-62856247D02*
X138261904Y-62951485D01*
X138261904Y-62951485D02*
X138261904Y-63094342D01*
X138261904Y-63094342D02*
X138214285Y-63189580D01*
X138214285Y-63189580D02*
X138166666Y-63237200D01*
X138166666Y-63237200D02*
X138071428Y-63284819D01*
X138071428Y-63284819D02*
X137690476Y-63284819D01*
X137690476Y-63284819D02*
X137690476Y-62284819D01*
X137690476Y-62284819D02*
X138023809Y-62284819D01*
X138023809Y-62284819D02*
X138119047Y-62332438D01*
X138119047Y-62332438D02*
X138166666Y-62380057D01*
X138166666Y-62380057D02*
X138214285Y-62475295D01*
X138214285Y-62475295D02*
X138214285Y-62570533D01*
X138214285Y-62570533D02*
X138166666Y-62665771D01*
X138166666Y-62665771D02*
X138119047Y-62713390D01*
X138119047Y-62713390D02*
X138023809Y-62761009D01*
X138023809Y-62761009D02*
X137690476Y-62761009D01*
X139214285Y-63284819D02*
X138642857Y-63284819D01*
X138928571Y-63284819D02*
X138928571Y-62284819D01*
X138928571Y-62284819D02*
X138833333Y-62427676D01*
X138833333Y-62427676D02*
X138738095Y-62522914D01*
X138738095Y-62522914D02*
X138642857Y-62570533D01*
X136519580Y-68666666D02*
X136567200Y-68714285D01*
X136567200Y-68714285D02*
X136614819Y-68857142D01*
X136614819Y-68857142D02*
X136614819Y-68952380D01*
X136614819Y-68952380D02*
X136567200Y-69095237D01*
X136567200Y-69095237D02*
X136471961Y-69190475D01*
X136471961Y-69190475D02*
X136376723Y-69238094D01*
X136376723Y-69238094D02*
X136186247Y-69285713D01*
X136186247Y-69285713D02*
X136043390Y-69285713D01*
X136043390Y-69285713D02*
X135852914Y-69238094D01*
X135852914Y-69238094D02*
X135757676Y-69190475D01*
X135757676Y-69190475D02*
X135662438Y-69095237D01*
X135662438Y-69095237D02*
X135614819Y-68952380D01*
X135614819Y-68952380D02*
X135614819Y-68857142D01*
X135614819Y-68857142D02*
X135662438Y-68714285D01*
X135662438Y-68714285D02*
X135710057Y-68666666D01*
X135614819Y-68333332D02*
X135614819Y-67714285D01*
X135614819Y-67714285D02*
X135995771Y-68047618D01*
X135995771Y-68047618D02*
X135995771Y-67904761D01*
X135995771Y-67904761D02*
X136043390Y-67809523D01*
X136043390Y-67809523D02*
X136091009Y-67761904D01*
X136091009Y-67761904D02*
X136186247Y-67714285D01*
X136186247Y-67714285D02*
X136424342Y-67714285D01*
X136424342Y-67714285D02*
X136519580Y-67761904D01*
X136519580Y-67761904D02*
X136567200Y-67809523D01*
X136567200Y-67809523D02*
X136614819Y-67904761D01*
X136614819Y-67904761D02*
X136614819Y-68190475D01*
X136614819Y-68190475D02*
X136567200Y-68285713D01*
X136567200Y-68285713D02*
X136519580Y-68333332D01*
X141019580Y-68666666D02*
X141067200Y-68714285D01*
X141067200Y-68714285D02*
X141114819Y-68857142D01*
X141114819Y-68857142D02*
X141114819Y-68952380D01*
X141114819Y-68952380D02*
X141067200Y-69095237D01*
X141067200Y-69095237D02*
X140971961Y-69190475D01*
X140971961Y-69190475D02*
X140876723Y-69238094D01*
X140876723Y-69238094D02*
X140686247Y-69285713D01*
X140686247Y-69285713D02*
X140543390Y-69285713D01*
X140543390Y-69285713D02*
X140352914Y-69238094D01*
X140352914Y-69238094D02*
X140257676Y-69190475D01*
X140257676Y-69190475D02*
X140162438Y-69095237D01*
X140162438Y-69095237D02*
X140114819Y-68952380D01*
X140114819Y-68952380D02*
X140114819Y-68857142D01*
X140114819Y-68857142D02*
X140162438Y-68714285D01*
X140162438Y-68714285D02*
X140210057Y-68666666D01*
X140448152Y-67809523D02*
X141114819Y-67809523D01*
X140067200Y-68047618D02*
X140781485Y-68285713D01*
X140781485Y-68285713D02*
X140781485Y-67666666D01*
X162404819Y-76833333D02*
X163119104Y-76833333D01*
X163119104Y-76833333D02*
X163261961Y-76880952D01*
X163261961Y-76880952D02*
X163357200Y-76976190D01*
X163357200Y-76976190D02*
X163404819Y-77119047D01*
X163404819Y-77119047D02*
X163404819Y-77214285D01*
X162500057Y-76404761D02*
X162452438Y-76357142D01*
X162452438Y-76357142D02*
X162404819Y-76261904D01*
X162404819Y-76261904D02*
X162404819Y-76023809D01*
X162404819Y-76023809D02*
X162452438Y-75928571D01*
X162452438Y-75928571D02*
X162500057Y-75880952D01*
X162500057Y-75880952D02*
X162595295Y-75833333D01*
X162595295Y-75833333D02*
X162690533Y-75833333D01*
X162690533Y-75833333D02*
X162833390Y-75880952D01*
X162833390Y-75880952D02*
X163404819Y-76452380D01*
X163404819Y-76452380D02*
X163404819Y-75833333D01*
X154009580Y-65666666D02*
X154057200Y-65714285D01*
X154057200Y-65714285D02*
X154104819Y-65857142D01*
X154104819Y-65857142D02*
X154104819Y-65952380D01*
X154104819Y-65952380D02*
X154057200Y-66095237D01*
X154057200Y-66095237D02*
X153961961Y-66190475D01*
X153961961Y-66190475D02*
X153866723Y-66238094D01*
X153866723Y-66238094D02*
X153676247Y-66285713D01*
X153676247Y-66285713D02*
X153533390Y-66285713D01*
X153533390Y-66285713D02*
X153342914Y-66238094D01*
X153342914Y-66238094D02*
X153247676Y-66190475D01*
X153247676Y-66190475D02*
X153152438Y-66095237D01*
X153152438Y-66095237D02*
X153104819Y-65952380D01*
X153104819Y-65952380D02*
X153104819Y-65857142D01*
X153104819Y-65857142D02*
X153152438Y-65714285D01*
X153152438Y-65714285D02*
X153200057Y-65666666D01*
X154104819Y-64714285D02*
X154104819Y-65285713D01*
X154104819Y-64999999D02*
X153104819Y-64999999D01*
X153104819Y-64999999D02*
X153247676Y-65095237D01*
X153247676Y-65095237D02*
X153342914Y-65190475D01*
X153342914Y-65190475D02*
X153390533Y-65285713D01*
X132054819Y-78761904D02*
X132864342Y-78761904D01*
X132864342Y-78761904D02*
X132959580Y-78714285D01*
X132959580Y-78714285D02*
X133007200Y-78666666D01*
X133007200Y-78666666D02*
X133054819Y-78571428D01*
X133054819Y-78571428D02*
X133054819Y-78380952D01*
X133054819Y-78380952D02*
X133007200Y-78285714D01*
X133007200Y-78285714D02*
X132959580Y-78238095D01*
X132959580Y-78238095D02*
X132864342Y-78190476D01*
X132864342Y-78190476D02*
X132054819Y-78190476D01*
X133054819Y-77190476D02*
X133054819Y-77761904D01*
X133054819Y-77476190D02*
X132054819Y-77476190D01*
X132054819Y-77476190D02*
X132197676Y-77571428D01*
X132197676Y-77571428D02*
X132292914Y-77666666D01*
X132292914Y-77666666D02*
X132340533Y-77761904D01*
X127254819Y-78718094D02*
X126254819Y-78718094D01*
X126254819Y-78718094D02*
X126254819Y-78479999D01*
X126254819Y-78479999D02*
X126302438Y-78337142D01*
X126302438Y-78337142D02*
X126397676Y-78241904D01*
X126397676Y-78241904D02*
X126492914Y-78194285D01*
X126492914Y-78194285D02*
X126683390Y-78146666D01*
X126683390Y-78146666D02*
X126826247Y-78146666D01*
X126826247Y-78146666D02*
X127016723Y-78194285D01*
X127016723Y-78194285D02*
X127111961Y-78241904D01*
X127111961Y-78241904D02*
X127207200Y-78337142D01*
X127207200Y-78337142D02*
X127254819Y-78479999D01*
X127254819Y-78479999D02*
X127254819Y-78718094D01*
X126350057Y-77765713D02*
X126302438Y-77718094D01*
X126302438Y-77718094D02*
X126254819Y-77622856D01*
X126254819Y-77622856D02*
X126254819Y-77384761D01*
X126254819Y-77384761D02*
X126302438Y-77289523D01*
X126302438Y-77289523D02*
X126350057Y-77241904D01*
X126350057Y-77241904D02*
X126445295Y-77194285D01*
X126445295Y-77194285D02*
X126540533Y-77194285D01*
X126540533Y-77194285D02*
X126683390Y-77241904D01*
X126683390Y-77241904D02*
X127254819Y-77813332D01*
X127254819Y-77813332D02*
X127254819Y-77194285D01*
X146699580Y-82166666D02*
X146747200Y-82214285D01*
X146747200Y-82214285D02*
X146794819Y-82357142D01*
X146794819Y-82357142D02*
X146794819Y-82452380D01*
X146794819Y-82452380D02*
X146747200Y-82595237D01*
X146747200Y-82595237D02*
X146651961Y-82690475D01*
X146651961Y-82690475D02*
X146556723Y-82738094D01*
X146556723Y-82738094D02*
X146366247Y-82785713D01*
X146366247Y-82785713D02*
X146223390Y-82785713D01*
X146223390Y-82785713D02*
X146032914Y-82738094D01*
X146032914Y-82738094D02*
X145937676Y-82690475D01*
X145937676Y-82690475D02*
X145842438Y-82595237D01*
X145842438Y-82595237D02*
X145794819Y-82452380D01*
X145794819Y-82452380D02*
X145794819Y-82357142D01*
X145794819Y-82357142D02*
X145842438Y-82214285D01*
X145842438Y-82214285D02*
X145890057Y-82166666D01*
X145794819Y-81309523D02*
X145794819Y-81499999D01*
X145794819Y-81499999D02*
X145842438Y-81595237D01*
X145842438Y-81595237D02*
X145890057Y-81642856D01*
X145890057Y-81642856D02*
X146032914Y-81738094D01*
X146032914Y-81738094D02*
X146223390Y-81785713D01*
X146223390Y-81785713D02*
X146604342Y-81785713D01*
X146604342Y-81785713D02*
X146699580Y-81738094D01*
X146699580Y-81738094D02*
X146747200Y-81690475D01*
X146747200Y-81690475D02*
X146794819Y-81595237D01*
X146794819Y-81595237D02*
X146794819Y-81404761D01*
X146794819Y-81404761D02*
X146747200Y-81309523D01*
X146747200Y-81309523D02*
X146699580Y-81261904D01*
X146699580Y-81261904D02*
X146604342Y-81214285D01*
X146604342Y-81214285D02*
X146366247Y-81214285D01*
X146366247Y-81214285D02*
X146271009Y-81261904D01*
X146271009Y-81261904D02*
X146223390Y-81309523D01*
X146223390Y-81309523D02*
X146175771Y-81404761D01*
X146175771Y-81404761D02*
X146175771Y-81595237D01*
X146175771Y-81595237D02*
X146223390Y-81690475D01*
X146223390Y-81690475D02*
X146271009Y-81738094D01*
X146271009Y-81738094D02*
X146366247Y-81785713D01*
X143833333Y-84784819D02*
X143500000Y-84308628D01*
X143261905Y-84784819D02*
X143261905Y-83784819D01*
X143261905Y-83784819D02*
X143642857Y-83784819D01*
X143642857Y-83784819D02*
X143738095Y-83832438D01*
X143738095Y-83832438D02*
X143785714Y-83880057D01*
X143785714Y-83880057D02*
X143833333Y-83975295D01*
X143833333Y-83975295D02*
X143833333Y-84118152D01*
X143833333Y-84118152D02*
X143785714Y-84213390D01*
X143785714Y-84213390D02*
X143738095Y-84261009D01*
X143738095Y-84261009D02*
X143642857Y-84308628D01*
X143642857Y-84308628D02*
X143261905Y-84308628D01*
X144785714Y-84784819D02*
X144214286Y-84784819D01*
X144500000Y-84784819D02*
X144500000Y-83784819D01*
X144500000Y-83784819D02*
X144404762Y-83927676D01*
X144404762Y-83927676D02*
X144309524Y-84022914D01*
X144309524Y-84022914D02*
X144214286Y-84070533D01*
X124504819Y-79333333D02*
X125219104Y-79333333D01*
X125219104Y-79333333D02*
X125361961Y-79380952D01*
X125361961Y-79380952D02*
X125457200Y-79476190D01*
X125457200Y-79476190D02*
X125504819Y-79619047D01*
X125504819Y-79619047D02*
X125504819Y-79714285D01*
X125504819Y-78333333D02*
X125504819Y-78904761D01*
X125504819Y-78619047D02*
X124504819Y-78619047D01*
X124504819Y-78619047D02*
X124647676Y-78714285D01*
X124647676Y-78714285D02*
X124742914Y-78809523D01*
X124742914Y-78809523D02*
X124790533Y-78904761D01*
X133124819Y-70166666D02*
X132648628Y-70499999D01*
X133124819Y-70738094D02*
X132124819Y-70738094D01*
X132124819Y-70738094D02*
X132124819Y-70357142D01*
X132124819Y-70357142D02*
X132172438Y-70261904D01*
X132172438Y-70261904D02*
X132220057Y-70214285D01*
X132220057Y-70214285D02*
X132315295Y-70166666D01*
X132315295Y-70166666D02*
X132458152Y-70166666D01*
X132458152Y-70166666D02*
X132553390Y-70214285D01*
X132553390Y-70214285D02*
X132601009Y-70261904D01*
X132601009Y-70261904D02*
X132648628Y-70357142D01*
X132648628Y-70357142D02*
X132648628Y-70738094D01*
X132220057Y-69785713D02*
X132172438Y-69738094D01*
X132172438Y-69738094D02*
X132124819Y-69642856D01*
X132124819Y-69642856D02*
X132124819Y-69404761D01*
X132124819Y-69404761D02*
X132172438Y-69309523D01*
X132172438Y-69309523D02*
X132220057Y-69261904D01*
X132220057Y-69261904D02*
X132315295Y-69214285D01*
X132315295Y-69214285D02*
X132410533Y-69214285D01*
X132410533Y-69214285D02*
X132553390Y-69261904D01*
X132553390Y-69261904D02*
X133124819Y-69833332D01*
X133124819Y-69833332D02*
X133124819Y-69214285D01*
%TO.C,C5*%
D11*
X143140000Y-71607836D02*
X143140000Y-71392164D01*
X143860000Y-71607836D02*
X143860000Y-71392164D01*
%TO.C,C2*%
X164090000Y-66211252D02*
X164090000Y-64788748D01*
X165910000Y-66211252D02*
X165910000Y-64788748D01*
%TO.C,U2*%
X150690000Y-71550000D02*
X150690000Y-71820000D01*
X150690000Y-78450000D02*
X150690000Y-78180000D01*
X157110000Y-71550000D02*
X150690000Y-71550000D01*
X157110000Y-78450000D02*
X150690000Y-78450000D01*
X148960000Y-71860000D02*
X148620000Y-71390000D01*
X149300000Y-71390000D01*
X148960000Y-71860000D01*
G36*
X148960000Y-71860000D02*
G01*
X148620000Y-71390000D01*
X149300000Y-71390000D01*
X148960000Y-71860000D01*
G37*
%TO.C,C3*%
X134640000Y-68392164D02*
X134640000Y-68607836D01*
X135360000Y-68392164D02*
X135360000Y-68607836D01*
%TO.C,C4*%
X139140000Y-68392164D02*
X139140000Y-68607836D01*
X139860000Y-68392164D02*
X139860000Y-68607836D01*
%TO.C,J2*%
X163900000Y-81850000D02*
X163900000Y-76100000D01*
X163950000Y-71550000D02*
X169900000Y-71550000D01*
X163950000Y-74750000D02*
X163950000Y-71550000D01*
X168790000Y-75420000D02*
X169800000Y-75420000D01*
X168790000Y-80500000D02*
X168790000Y-75420000D01*
X169800000Y-80500000D02*
X168790000Y-80500000D01*
X169900000Y-71550000D02*
X169900000Y-81850000D01*
X169900000Y-81850000D02*
X163900000Y-81850000D01*
%TO.C,C1*%
X154590000Y-66211252D02*
X154590000Y-64788748D01*
X156410000Y-66211252D02*
X156410000Y-64788748D01*
%TO.C,U1*%
X133440000Y-75940000D02*
X133495000Y-75940000D01*
X133440000Y-80060000D02*
X133440000Y-75940000D01*
X133495000Y-80060000D02*
X133440000Y-80060000D01*
X143505000Y-75940000D02*
X143560000Y-75940000D01*
X143560000Y-75940000D02*
X143560000Y-80060000D01*
X143560000Y-80060000D02*
X143505000Y-80060000D01*
X133490000Y-80600000D02*
X133160000Y-80840000D01*
X133160000Y-80360000D01*
X133490000Y-80600000D01*
G36*
X133490000Y-80600000D02*
G01*
X133160000Y-80840000D01*
X133160000Y-80360000D01*
X133490000Y-80600000D01*
G37*
%TO.C,D2*%
X127940000Y-77350000D02*
X127940000Y-78620000D01*
X131060000Y-78650000D02*
X131060000Y-77350000D01*
X127990000Y-79000000D02*
X127660000Y-79240000D01*
X127660000Y-78760000D01*
X127990000Y-79000000D01*
G36*
X127990000Y-79000000D02*
G01*
X127660000Y-79240000D01*
X127660000Y-78760000D01*
X127990000Y-79000000D01*
G37*
%TO.C,C6*%
X147140000Y-82107836D02*
X147140000Y-81892164D01*
X147860000Y-82107836D02*
X147860000Y-81892164D01*
%TO.C,R1*%
X143846359Y-85120000D02*
X144153641Y-85120000D01*
X143846359Y-85880000D02*
X144153641Y-85880000D01*
%TO.C,J1*%
X118100000Y-73650000D02*
X124100000Y-73650000D01*
X118100000Y-83950000D02*
X118100000Y-73650000D01*
X118200000Y-75000000D02*
X119210000Y-75000000D01*
X119210000Y-75000000D02*
X119210000Y-80080000D01*
X119210000Y-80080000D02*
X118200000Y-80080000D01*
X124050000Y-80750000D02*
X124050000Y-83950000D01*
X124050000Y-83950000D02*
X118100000Y-83950000D01*
X124100000Y-73650000D02*
X124100000Y-79400000D01*
%TO.C,R2*%
X131120000Y-69846359D02*
X131120000Y-70153641D01*
X131880000Y-69846359D02*
X131880000Y-70153641D01*
%TD*%
M02*
