%TF.GenerationSoftware,KiCad,Pcbnew,10.0.0*%
%TF.CreationDate,2026-04-06T10:19:49+05:30*%
%TF.ProjectId,Load_Cell_HX711,4c6f6164-5f43-4656-9c6c-5f4858373131,rev?*%
%TF.SameCoordinates,Original*%
%TF.FileFunction,Drillmap*%
%TF.FilePolarity,Positive*%
%FSLAX45Y45*%
G04 Gerber Fmt 4.5, Leading zero omitted, Abs format (unit mm)*
G04 Created by KiCad (PCBNEW 10.0.0) date 2026-04-06 10:19:49*
%MOMM*%
%LPD*%
G01*
G04 APERTURE LIST*
%ADD10C,0.050000*%
%ADD11C,0.200000*%
%ADD12C,0.110000*%
G04 APERTURE END LIST*
D10*
X11729618Y-6216117D02*
X17057968Y-6216117D01*
X17057968Y-8750000D01*
X11729618Y-8750000D01*
X11729618Y-6216117D01*
D11*
D12*
X12311000Y-7953000D02*
X12421000Y-8063000D01*
X12421000Y-7953000D02*
X12311000Y-8063000D01*
X16379000Y-7487000D02*
X16489000Y-7597000D01*
X16489000Y-7487000D02*
X16379000Y-7597000D01*
D11*
X11987895Y-9063984D02*
X11987895Y-8863984D01*
X11987895Y-8863984D02*
X12035514Y-8863984D01*
X12035514Y-8863984D02*
X12064086Y-8873508D01*
X12064086Y-8873508D02*
X12083133Y-8892555D01*
X12083133Y-8892555D02*
X12092657Y-8911603D01*
X12092657Y-8911603D02*
X12102181Y-8949698D01*
X12102181Y-8949698D02*
X12102181Y-8978270D01*
X12102181Y-8978270D02*
X12092657Y-9016365D01*
X12092657Y-9016365D02*
X12083133Y-9035412D01*
X12083133Y-9035412D02*
X12064086Y-9054460D01*
X12064086Y-9054460D02*
X12035514Y-9063984D01*
X12035514Y-9063984D02*
X11987895Y-9063984D01*
X12187895Y-9063984D02*
X12187895Y-8930650D01*
X12187895Y-8968746D02*
X12197419Y-8949698D01*
X12197419Y-8949698D02*
X12206943Y-8940174D01*
X12206943Y-8940174D02*
X12225990Y-8930650D01*
X12225990Y-8930650D02*
X12245038Y-8930650D01*
X12311705Y-9063984D02*
X12311705Y-8930650D01*
X12311705Y-8863984D02*
X12302181Y-8873508D01*
X12302181Y-8873508D02*
X12311705Y-8883031D01*
X12311705Y-8883031D02*
X12321228Y-8873508D01*
X12321228Y-8873508D02*
X12311705Y-8863984D01*
X12311705Y-8863984D02*
X12311705Y-8883031D01*
X12435514Y-9063984D02*
X12416467Y-9054460D01*
X12416467Y-9054460D02*
X12406943Y-9035412D01*
X12406943Y-9035412D02*
X12406943Y-8863984D01*
X12540276Y-9063984D02*
X12521228Y-9054460D01*
X12521228Y-9054460D02*
X12511705Y-9035412D01*
X12511705Y-9035412D02*
X12511705Y-8863984D01*
X12768848Y-9063984D02*
X12768848Y-8863984D01*
X12768848Y-8863984D02*
X12835514Y-9006841D01*
X12835514Y-9006841D02*
X12902181Y-8863984D01*
X12902181Y-8863984D02*
X12902181Y-9063984D01*
X13083133Y-9063984D02*
X13083133Y-8959222D01*
X13083133Y-8959222D02*
X13073609Y-8940174D01*
X13073609Y-8940174D02*
X13054562Y-8930650D01*
X13054562Y-8930650D02*
X13016467Y-8930650D01*
X13016467Y-8930650D02*
X12997419Y-8940174D01*
X13083133Y-9054460D02*
X13064086Y-9063984D01*
X13064086Y-9063984D02*
X13016467Y-9063984D01*
X13016467Y-9063984D02*
X12997419Y-9054460D01*
X12997419Y-9054460D02*
X12987895Y-9035412D01*
X12987895Y-9035412D02*
X12987895Y-9016365D01*
X12987895Y-9016365D02*
X12997419Y-8997317D01*
X12997419Y-8997317D02*
X13016467Y-8987793D01*
X13016467Y-8987793D02*
X13064086Y-8987793D01*
X13064086Y-8987793D02*
X13083133Y-8978270D01*
X13178371Y-8930650D02*
X13178371Y-9130650D01*
X13178371Y-8940174D02*
X13197419Y-8930650D01*
X13197419Y-8930650D02*
X13235514Y-8930650D01*
X13235514Y-8930650D02*
X13254562Y-8940174D01*
X13254562Y-8940174D02*
X13264086Y-8949698D01*
X13264086Y-8949698D02*
X13273609Y-8968746D01*
X13273609Y-8968746D02*
X13273609Y-9025889D01*
X13273609Y-9025889D02*
X13264086Y-9044936D01*
X13264086Y-9044936D02*
X13254562Y-9054460D01*
X13254562Y-9054460D02*
X13235514Y-9063984D01*
X13235514Y-9063984D02*
X13197419Y-9063984D01*
X13197419Y-9063984D02*
X13178371Y-9054460D01*
X13359324Y-9044936D02*
X13368848Y-9054460D01*
X13368848Y-9054460D02*
X13359324Y-9063984D01*
X13359324Y-9063984D02*
X13349800Y-9054460D01*
X13349800Y-9054460D02*
X13359324Y-9044936D01*
X13359324Y-9044936D02*
X13359324Y-9063984D01*
X13359324Y-8940174D02*
X13368848Y-8949698D01*
X13368848Y-8949698D02*
X13359324Y-8959222D01*
X13359324Y-8959222D02*
X13349800Y-8949698D01*
X13349800Y-8949698D02*
X13359324Y-8940174D01*
X13359324Y-8940174D02*
X13359324Y-8959222D01*
D12*
X11617118Y-9337500D02*
X11727118Y-9447500D01*
X11727118Y-9337500D02*
X11617118Y-9447500D01*
D11*
X12092657Y-9483984D02*
X11978371Y-9483984D01*
X12035514Y-9483984D02*
X12035514Y-9283984D01*
X12035514Y-9283984D02*
X12016467Y-9312555D01*
X12016467Y-9312555D02*
X11997419Y-9331603D01*
X11997419Y-9331603D02*
X11978371Y-9341127D01*
X12178371Y-9464936D02*
X12187895Y-9474460D01*
X12187895Y-9474460D02*
X12178371Y-9483984D01*
X12178371Y-9483984D02*
X12168848Y-9474460D01*
X12168848Y-9474460D02*
X12178371Y-9464936D01*
X12178371Y-9464936D02*
X12178371Y-9483984D01*
X12378371Y-9483984D02*
X12264086Y-9483984D01*
X12321228Y-9483984D02*
X12321228Y-9283984D01*
X12321228Y-9283984D02*
X12302181Y-9312555D01*
X12302181Y-9312555D02*
X12283133Y-9331603D01*
X12283133Y-9331603D02*
X12264086Y-9341127D01*
X12502181Y-9283984D02*
X12521229Y-9283984D01*
X12521229Y-9283984D02*
X12540276Y-9293508D01*
X12540276Y-9293508D02*
X12549800Y-9303031D01*
X12549800Y-9303031D02*
X12559324Y-9322079D01*
X12559324Y-9322079D02*
X12568848Y-9360174D01*
X12568848Y-9360174D02*
X12568848Y-9407793D01*
X12568848Y-9407793D02*
X12559324Y-9445889D01*
X12559324Y-9445889D02*
X12549800Y-9464936D01*
X12549800Y-9464936D02*
X12540276Y-9474460D01*
X12540276Y-9474460D02*
X12521229Y-9483984D01*
X12521229Y-9483984D02*
X12502181Y-9483984D01*
X12502181Y-9483984D02*
X12483133Y-9474460D01*
X12483133Y-9474460D02*
X12473609Y-9464936D01*
X12473609Y-9464936D02*
X12464086Y-9445889D01*
X12464086Y-9445889D02*
X12454562Y-9407793D01*
X12454562Y-9407793D02*
X12454562Y-9360174D01*
X12454562Y-9360174D02*
X12464086Y-9322079D01*
X12464086Y-9322079D02*
X12473609Y-9303031D01*
X12473609Y-9303031D02*
X12483133Y-9293508D01*
X12483133Y-9293508D02*
X12502181Y-9283984D01*
X12692657Y-9283984D02*
X12711705Y-9283984D01*
X12711705Y-9283984D02*
X12730752Y-9293508D01*
X12730752Y-9293508D02*
X12740276Y-9303031D01*
X12740276Y-9303031D02*
X12749800Y-9322079D01*
X12749800Y-9322079D02*
X12759324Y-9360174D01*
X12759324Y-9360174D02*
X12759324Y-9407793D01*
X12759324Y-9407793D02*
X12749800Y-9445889D01*
X12749800Y-9445889D02*
X12740276Y-9464936D01*
X12740276Y-9464936D02*
X12730752Y-9474460D01*
X12730752Y-9474460D02*
X12711705Y-9483984D01*
X12711705Y-9483984D02*
X12692657Y-9483984D01*
X12692657Y-9483984D02*
X12673609Y-9474460D01*
X12673609Y-9474460D02*
X12664086Y-9464936D01*
X12664086Y-9464936D02*
X12654562Y-9445889D01*
X12654562Y-9445889D02*
X12645038Y-9407793D01*
X12645038Y-9407793D02*
X12645038Y-9360174D01*
X12645038Y-9360174D02*
X12654562Y-9322079D01*
X12654562Y-9322079D02*
X12664086Y-9303031D01*
X12664086Y-9303031D02*
X12673609Y-9293508D01*
X12673609Y-9293508D02*
X12692657Y-9283984D01*
X12845038Y-9483984D02*
X12845038Y-9350650D01*
X12845038Y-9369698D02*
X12854562Y-9360174D01*
X12854562Y-9360174D02*
X12873609Y-9350650D01*
X12873609Y-9350650D02*
X12902181Y-9350650D01*
X12902181Y-9350650D02*
X12921229Y-9360174D01*
X12921229Y-9360174D02*
X12930752Y-9379222D01*
X12930752Y-9379222D02*
X12930752Y-9483984D01*
X12930752Y-9379222D02*
X12940276Y-9360174D01*
X12940276Y-9360174D02*
X12959324Y-9350650D01*
X12959324Y-9350650D02*
X12987895Y-9350650D01*
X12987895Y-9350650D02*
X13006943Y-9360174D01*
X13006943Y-9360174D02*
X13016467Y-9379222D01*
X13016467Y-9379222D02*
X13016467Y-9483984D01*
X13111705Y-9483984D02*
X13111705Y-9350650D01*
X13111705Y-9369698D02*
X13121229Y-9360174D01*
X13121229Y-9360174D02*
X13140276Y-9350650D01*
X13140276Y-9350650D02*
X13168848Y-9350650D01*
X13168848Y-9350650D02*
X13187895Y-9360174D01*
X13187895Y-9360174D02*
X13197419Y-9379222D01*
X13197419Y-9379222D02*
X13197419Y-9483984D01*
X13197419Y-9379222D02*
X13206943Y-9360174D01*
X13206943Y-9360174D02*
X13225990Y-9350650D01*
X13225990Y-9350650D02*
X13254562Y-9350650D01*
X13254562Y-9350650D02*
X13273610Y-9360174D01*
X13273610Y-9360174D02*
X13283133Y-9379222D01*
X13283133Y-9379222D02*
X13283133Y-9483984D01*
X13673610Y-9274460D02*
X13502181Y-9531603D01*
X13930752Y-9283984D02*
X13949800Y-9283984D01*
X13949800Y-9283984D02*
X13968848Y-9293508D01*
X13968848Y-9293508D02*
X13978372Y-9303031D01*
X13978372Y-9303031D02*
X13987895Y-9322079D01*
X13987895Y-9322079D02*
X13997419Y-9360174D01*
X13997419Y-9360174D02*
X13997419Y-9407793D01*
X13997419Y-9407793D02*
X13987895Y-9445889D01*
X13987895Y-9445889D02*
X13978372Y-9464936D01*
X13978372Y-9464936D02*
X13968848Y-9474460D01*
X13968848Y-9474460D02*
X13949800Y-9483984D01*
X13949800Y-9483984D02*
X13930752Y-9483984D01*
X13930752Y-9483984D02*
X13911705Y-9474460D01*
X13911705Y-9474460D02*
X13902181Y-9464936D01*
X13902181Y-9464936D02*
X13892657Y-9445889D01*
X13892657Y-9445889D02*
X13883133Y-9407793D01*
X13883133Y-9407793D02*
X13883133Y-9360174D01*
X13883133Y-9360174D02*
X13892657Y-9322079D01*
X13892657Y-9322079D02*
X13902181Y-9303031D01*
X13902181Y-9303031D02*
X13911705Y-9293508D01*
X13911705Y-9293508D02*
X13930752Y-9283984D01*
X14083133Y-9464936D02*
X14092657Y-9474460D01*
X14092657Y-9474460D02*
X14083133Y-9483984D01*
X14083133Y-9483984D02*
X14073610Y-9474460D01*
X14073610Y-9474460D02*
X14083133Y-9464936D01*
X14083133Y-9464936D02*
X14083133Y-9483984D01*
X14216467Y-9283984D02*
X14235514Y-9283984D01*
X14235514Y-9283984D02*
X14254562Y-9293508D01*
X14254562Y-9293508D02*
X14264086Y-9303031D01*
X14264086Y-9303031D02*
X14273610Y-9322079D01*
X14273610Y-9322079D02*
X14283133Y-9360174D01*
X14283133Y-9360174D02*
X14283133Y-9407793D01*
X14283133Y-9407793D02*
X14273610Y-9445889D01*
X14273610Y-9445889D02*
X14264086Y-9464936D01*
X14264086Y-9464936D02*
X14254562Y-9474460D01*
X14254562Y-9474460D02*
X14235514Y-9483984D01*
X14235514Y-9483984D02*
X14216467Y-9483984D01*
X14216467Y-9483984D02*
X14197419Y-9474460D01*
X14197419Y-9474460D02*
X14187895Y-9464936D01*
X14187895Y-9464936D02*
X14178372Y-9445889D01*
X14178372Y-9445889D02*
X14168848Y-9407793D01*
X14168848Y-9407793D02*
X14168848Y-9360174D01*
X14168848Y-9360174D02*
X14178372Y-9322079D01*
X14178372Y-9322079D02*
X14187895Y-9303031D01*
X14187895Y-9303031D02*
X14197419Y-9293508D01*
X14197419Y-9293508D02*
X14216467Y-9283984D01*
X14454562Y-9350650D02*
X14454562Y-9483984D01*
X14406943Y-9274460D02*
X14359324Y-9417317D01*
X14359324Y-9417317D02*
X14483133Y-9417317D01*
X14540276Y-9283984D02*
X14664086Y-9283984D01*
X14664086Y-9283984D02*
X14597419Y-9360174D01*
X14597419Y-9360174D02*
X14625991Y-9360174D01*
X14625991Y-9360174D02*
X14645038Y-9369698D01*
X14645038Y-9369698D02*
X14654562Y-9379222D01*
X14654562Y-9379222D02*
X14664086Y-9398270D01*
X14664086Y-9398270D02*
X14664086Y-9445889D01*
X14664086Y-9445889D02*
X14654562Y-9464936D01*
X14654562Y-9464936D02*
X14645038Y-9474460D01*
X14645038Y-9474460D02*
X14625991Y-9483984D01*
X14625991Y-9483984D02*
X14568848Y-9483984D01*
X14568848Y-9483984D02*
X14549800Y-9474460D01*
X14549800Y-9474460D02*
X14540276Y-9464936D01*
X14730753Y-9283984D02*
X14854562Y-9283984D01*
X14854562Y-9283984D02*
X14787895Y-9360174D01*
X14787895Y-9360174D02*
X14816467Y-9360174D01*
X14816467Y-9360174D02*
X14835514Y-9369698D01*
X14835514Y-9369698D02*
X14845038Y-9379222D01*
X14845038Y-9379222D02*
X14854562Y-9398270D01*
X14854562Y-9398270D02*
X14854562Y-9445889D01*
X14854562Y-9445889D02*
X14845038Y-9464936D01*
X14845038Y-9464936D02*
X14835514Y-9474460D01*
X14835514Y-9474460D02*
X14816467Y-9483984D01*
X14816467Y-9483984D02*
X14759324Y-9483984D01*
X14759324Y-9483984D02*
X14740276Y-9474460D01*
X14740276Y-9474460D02*
X14730753Y-9464936D01*
X14930753Y-9283984D02*
X14930753Y-9322079D01*
X15006943Y-9283984D02*
X15006943Y-9322079D01*
X15302181Y-9560174D02*
X15292657Y-9550650D01*
X15292657Y-9550650D02*
X15273610Y-9522079D01*
X15273610Y-9522079D02*
X15264086Y-9503031D01*
X15264086Y-9503031D02*
X15254562Y-9474460D01*
X15254562Y-9474460D02*
X15245038Y-9426841D01*
X15245038Y-9426841D02*
X15245038Y-9388746D01*
X15245038Y-9388746D02*
X15254562Y-9341127D01*
X15254562Y-9341127D02*
X15264086Y-9312555D01*
X15264086Y-9312555D02*
X15273610Y-9293508D01*
X15273610Y-9293508D02*
X15292657Y-9264936D01*
X15292657Y-9264936D02*
X15302181Y-9255412D01*
X15368848Y-9303031D02*
X15378372Y-9293508D01*
X15378372Y-9293508D02*
X15397419Y-9283984D01*
X15397419Y-9283984D02*
X15445038Y-9283984D01*
X15445038Y-9283984D02*
X15464086Y-9293508D01*
X15464086Y-9293508D02*
X15473610Y-9303031D01*
X15473610Y-9303031D02*
X15483134Y-9322079D01*
X15483134Y-9322079D02*
X15483134Y-9341127D01*
X15483134Y-9341127D02*
X15473610Y-9369698D01*
X15473610Y-9369698D02*
X15359324Y-9483984D01*
X15359324Y-9483984D02*
X15483134Y-9483984D01*
X15721229Y-9483984D02*
X15721229Y-9283984D01*
X15806943Y-9483984D02*
X15806943Y-9379222D01*
X15806943Y-9379222D02*
X15797419Y-9360174D01*
X15797419Y-9360174D02*
X15778372Y-9350650D01*
X15778372Y-9350650D02*
X15749800Y-9350650D01*
X15749800Y-9350650D02*
X15730753Y-9360174D01*
X15730753Y-9360174D02*
X15721229Y-9369698D01*
X15930753Y-9483984D02*
X15911705Y-9474460D01*
X15911705Y-9474460D02*
X15902181Y-9464936D01*
X15902181Y-9464936D02*
X15892657Y-9445889D01*
X15892657Y-9445889D02*
X15892657Y-9388746D01*
X15892657Y-9388746D02*
X15902181Y-9369698D01*
X15902181Y-9369698D02*
X15911705Y-9360174D01*
X15911705Y-9360174D02*
X15930753Y-9350650D01*
X15930753Y-9350650D02*
X15959324Y-9350650D01*
X15959324Y-9350650D02*
X15978372Y-9360174D01*
X15978372Y-9360174D02*
X15987896Y-9369698D01*
X15987896Y-9369698D02*
X15997419Y-9388746D01*
X15997419Y-9388746D02*
X15997419Y-9445889D01*
X15997419Y-9445889D02*
X15987896Y-9464936D01*
X15987896Y-9464936D02*
X15978372Y-9474460D01*
X15978372Y-9474460D02*
X15959324Y-9483984D01*
X15959324Y-9483984D02*
X15930753Y-9483984D01*
X16111705Y-9483984D02*
X16092657Y-9474460D01*
X16092657Y-9474460D02*
X16083134Y-9455412D01*
X16083134Y-9455412D02*
X16083134Y-9283984D01*
X16264086Y-9474460D02*
X16245038Y-9483984D01*
X16245038Y-9483984D02*
X16206943Y-9483984D01*
X16206943Y-9483984D02*
X16187896Y-9474460D01*
X16187896Y-9474460D02*
X16178372Y-9455412D01*
X16178372Y-9455412D02*
X16178372Y-9379222D01*
X16178372Y-9379222D02*
X16187896Y-9360174D01*
X16187896Y-9360174D02*
X16206943Y-9350650D01*
X16206943Y-9350650D02*
X16245038Y-9350650D01*
X16245038Y-9350650D02*
X16264086Y-9360174D01*
X16264086Y-9360174D02*
X16273610Y-9379222D01*
X16273610Y-9379222D02*
X16273610Y-9398270D01*
X16273610Y-9398270D02*
X16178372Y-9417317D01*
X16349800Y-9474460D02*
X16368848Y-9483984D01*
X16368848Y-9483984D02*
X16406943Y-9483984D01*
X16406943Y-9483984D02*
X16425991Y-9474460D01*
X16425991Y-9474460D02*
X16435515Y-9455412D01*
X16435515Y-9455412D02*
X16435515Y-9445889D01*
X16435515Y-9445889D02*
X16425991Y-9426841D01*
X16425991Y-9426841D02*
X16406943Y-9417317D01*
X16406943Y-9417317D02*
X16378372Y-9417317D01*
X16378372Y-9417317D02*
X16359324Y-9407793D01*
X16359324Y-9407793D02*
X16349800Y-9388746D01*
X16349800Y-9388746D02*
X16349800Y-9379222D01*
X16349800Y-9379222D02*
X16359324Y-9360174D01*
X16359324Y-9360174D02*
X16378372Y-9350650D01*
X16378372Y-9350650D02*
X16406943Y-9350650D01*
X16406943Y-9350650D02*
X16425991Y-9360174D01*
X16502181Y-9560174D02*
X16511705Y-9550650D01*
X16511705Y-9550650D02*
X16530753Y-9522079D01*
X16530753Y-9522079D02*
X16540277Y-9503031D01*
X16540277Y-9503031D02*
X16549800Y-9474460D01*
X16549800Y-9474460D02*
X16559324Y-9426841D01*
X16559324Y-9426841D02*
X16559324Y-9388746D01*
X16559324Y-9388746D02*
X16549800Y-9341127D01*
X16549800Y-9341127D02*
X16540277Y-9312555D01*
X16540277Y-9312555D02*
X16530753Y-9293508D01*
X16530753Y-9293508D02*
X16511705Y-9264936D01*
X16511705Y-9264936D02*
X16502181Y-9255412D01*
X16864086Y-9560174D02*
X16854562Y-9550650D01*
X16854562Y-9550650D02*
X16835515Y-9522079D01*
X16835515Y-9522079D02*
X16825991Y-9503031D01*
X16825991Y-9503031D02*
X16816467Y-9474460D01*
X16816467Y-9474460D02*
X16806943Y-9426841D01*
X16806943Y-9426841D02*
X16806943Y-9388746D01*
X16806943Y-9388746D02*
X16816467Y-9341127D01*
X16816467Y-9341127D02*
X16825991Y-9312555D01*
X16825991Y-9312555D02*
X16835515Y-9293508D01*
X16835515Y-9293508D02*
X16854562Y-9264936D01*
X16854562Y-9264936D02*
X16864086Y-9255412D01*
X16940277Y-9350650D02*
X16940277Y-9483984D01*
X16940277Y-9369698D02*
X16949800Y-9360174D01*
X16949800Y-9360174D02*
X16968848Y-9350650D01*
X16968848Y-9350650D02*
X16997420Y-9350650D01*
X16997420Y-9350650D02*
X17016467Y-9360174D01*
X17016467Y-9360174D02*
X17025991Y-9379222D01*
X17025991Y-9379222D02*
X17025991Y-9483984D01*
X17149800Y-9483984D02*
X17130753Y-9474460D01*
X17130753Y-9474460D02*
X17121229Y-9464936D01*
X17121229Y-9464936D02*
X17111705Y-9445889D01*
X17111705Y-9445889D02*
X17111705Y-9388746D01*
X17111705Y-9388746D02*
X17121229Y-9369698D01*
X17121229Y-9369698D02*
X17130753Y-9360174D01*
X17130753Y-9360174D02*
X17149800Y-9350650D01*
X17149800Y-9350650D02*
X17178372Y-9350650D01*
X17178372Y-9350650D02*
X17197420Y-9360174D01*
X17197420Y-9360174D02*
X17206943Y-9369698D01*
X17206943Y-9369698D02*
X17216467Y-9388746D01*
X17216467Y-9388746D02*
X17216467Y-9445889D01*
X17216467Y-9445889D02*
X17206943Y-9464936D01*
X17206943Y-9464936D02*
X17197420Y-9474460D01*
X17197420Y-9474460D02*
X17178372Y-9483984D01*
X17178372Y-9483984D02*
X17149800Y-9483984D01*
X17273610Y-9350650D02*
X17349800Y-9350650D01*
X17302181Y-9283984D02*
X17302181Y-9455412D01*
X17302181Y-9455412D02*
X17311705Y-9474460D01*
X17311705Y-9474460D02*
X17330753Y-9483984D01*
X17330753Y-9483984D02*
X17349800Y-9483984D01*
X17568848Y-9350650D02*
X17568848Y-9550650D01*
X17568848Y-9360174D02*
X17587896Y-9350650D01*
X17587896Y-9350650D02*
X17625991Y-9350650D01*
X17625991Y-9350650D02*
X17645039Y-9360174D01*
X17645039Y-9360174D02*
X17654562Y-9369698D01*
X17654562Y-9369698D02*
X17664086Y-9388746D01*
X17664086Y-9388746D02*
X17664086Y-9445889D01*
X17664086Y-9445889D02*
X17654562Y-9464936D01*
X17654562Y-9464936D02*
X17645039Y-9474460D01*
X17645039Y-9474460D02*
X17625991Y-9483984D01*
X17625991Y-9483984D02*
X17587896Y-9483984D01*
X17587896Y-9483984D02*
X17568848Y-9474460D01*
X17778372Y-9483984D02*
X17759324Y-9474460D01*
X17759324Y-9474460D02*
X17749801Y-9455412D01*
X17749801Y-9455412D02*
X17749801Y-9283984D01*
X17940277Y-9483984D02*
X17940277Y-9379222D01*
X17940277Y-9379222D02*
X17930753Y-9360174D01*
X17930753Y-9360174D02*
X17911705Y-9350650D01*
X17911705Y-9350650D02*
X17873610Y-9350650D01*
X17873610Y-9350650D02*
X17854562Y-9360174D01*
X17940277Y-9474460D02*
X17921229Y-9483984D01*
X17921229Y-9483984D02*
X17873610Y-9483984D01*
X17873610Y-9483984D02*
X17854562Y-9474460D01*
X17854562Y-9474460D02*
X17845039Y-9455412D01*
X17845039Y-9455412D02*
X17845039Y-9436365D01*
X17845039Y-9436365D02*
X17854562Y-9417317D01*
X17854562Y-9417317D02*
X17873610Y-9407793D01*
X17873610Y-9407793D02*
X17921229Y-9407793D01*
X17921229Y-9407793D02*
X17940277Y-9398270D01*
X18006943Y-9350650D02*
X18083134Y-9350650D01*
X18035515Y-9283984D02*
X18035515Y-9455412D01*
X18035515Y-9455412D02*
X18045039Y-9474460D01*
X18045039Y-9474460D02*
X18064086Y-9483984D01*
X18064086Y-9483984D02*
X18083134Y-9483984D01*
X18225991Y-9474460D02*
X18206943Y-9483984D01*
X18206943Y-9483984D02*
X18168848Y-9483984D01*
X18168848Y-9483984D02*
X18149801Y-9474460D01*
X18149801Y-9474460D02*
X18140277Y-9455412D01*
X18140277Y-9455412D02*
X18140277Y-9379222D01*
X18140277Y-9379222D02*
X18149801Y-9360174D01*
X18149801Y-9360174D02*
X18168848Y-9350650D01*
X18168848Y-9350650D02*
X18206943Y-9350650D01*
X18206943Y-9350650D02*
X18225991Y-9360174D01*
X18225991Y-9360174D02*
X18235515Y-9379222D01*
X18235515Y-9379222D02*
X18235515Y-9398270D01*
X18235515Y-9398270D02*
X18140277Y-9417317D01*
X18406943Y-9483984D02*
X18406943Y-9283984D01*
X18406943Y-9474460D02*
X18387896Y-9483984D01*
X18387896Y-9483984D02*
X18349801Y-9483984D01*
X18349801Y-9483984D02*
X18330753Y-9474460D01*
X18330753Y-9474460D02*
X18321229Y-9464936D01*
X18321229Y-9464936D02*
X18311705Y-9445889D01*
X18311705Y-9445889D02*
X18311705Y-9388746D01*
X18311705Y-9388746D02*
X18321229Y-9369698D01*
X18321229Y-9369698D02*
X18330753Y-9360174D01*
X18330753Y-9360174D02*
X18349801Y-9350650D01*
X18349801Y-9350650D02*
X18387896Y-9350650D01*
X18387896Y-9350650D02*
X18406943Y-9360174D01*
X18483134Y-9560174D02*
X18492658Y-9550650D01*
X18492658Y-9550650D02*
X18511705Y-9522079D01*
X18511705Y-9522079D02*
X18521229Y-9503031D01*
X18521229Y-9503031D02*
X18530753Y-9474460D01*
X18530753Y-9474460D02*
X18540277Y-9426841D01*
X18540277Y-9426841D02*
X18540277Y-9388746D01*
X18540277Y-9388746D02*
X18530753Y-9341127D01*
X18530753Y-9341127D02*
X18521229Y-9312555D01*
X18521229Y-9312555D02*
X18511705Y-9293508D01*
X18511705Y-9293508D02*
X18492658Y-9264936D01*
X18492658Y-9264936D02*
X18483134Y-9255412D01*
M02*
